<?xml version="1.0" encoding="UTF-8"?>
<svg width="300px" height="300px" viewBox="0 0 196 242" version="1.1" xmlns="http://www.w3.org/2000/svg" xmlns:xlink="http://www.w3.org/1999/xlink">
    <!-- Generator: Sketch 63.1 (92452) - https://sketch.com -->
    <title>questionicon 2</title>
    <desc>Created with Sketch.</desc>
    <g id="Page-1" stroke="none" stroke-width="1" fill="none" fill-rule="evenodd">
        <g id="questionicon" fill="#FFFFFF" fill-rule="nonzero">
            <path d="M50.9,88.4 L83.5,88.4 L108.2,113.1 L132.9,88.4 L165.5,88.4 C168.4,88.4 170.7,86.1 170.7,83.2 L170.7,5.2 C170.7,2.3 168.4,0 165.5,0 L50.9,0 C48,0 45.7,2.3 45.7,5.2 L45.7,83.1 C45.7,86 48,88.4 50.9,88.4 Z M55.3,9.6 L161,9.6 L161,78.7 L128.9,78.7 L108.2,99.4 L87.5,78.7 L55.3,78.7 L55.3,9.6 Z" id="Shape"></path>
            <path d="M186.8,60.6 C185.6,58.2 182.8,57.2 180.4,58.4 C178,59.6 177,62.4 178.2,64.8 C183.1,74.9 185.8,85.9 186,97.3 C186.2,108.4 184.1,119.1 179.7,129.3 C170.5,150.7 165.8,172.6 165.8,194.4 L165.8,211.8 C165.8,212.6 165.2,213.3 164.4,213.5 L70.8,232 C70.5,228.3 70.3,223.8 70,219.5 C68.9,202.6 68.8,202.4 68.6,201.6 L67.6,198.1 L63,198.1 C58.7,198.1 54.5,198.1 50.3,198.1 C49.4,198.1 48.4,198.1 47.4,198.2 C42.8,198.3 37.9,198.5 35.3,196 C33.9,194.8 33.1,192.5 32.7,189.4 C32.7,189.2 32.6,188.9 26,145 L25.8,143.7 L24.9,142.7 L23.7,141.5 C22.7,140.7 21.6,140.3 20.7,140 L19.8,139.6 C18.3,138.9 16.7,138.3 15.2,137.6 C13.5,136.8 12,136.1 10.7,135.2 C10.5,135.1 10.3,134.9 10.1,134.8 C10.4,134.1 10.9,133.3 11.7,132.3 C12.5,131.4 17.5,126.5 20.3,123.9 L23.6,120.8 C27.5,116.9 31.2,112.5 32.1,106.9 L32.2,106.5 L32.2,106.1 C32.2,101.9 32.2,99.1 32.2,98.7 C32.2,88.3 34.2,78.2 38.3,68.7 C39.3,66.3 38.2,63.4 35.8,62.4 C33.3,61.4 30.5,62.5 29.5,64.9 C25,75.6 22.7,86.9 22.7,98.6 C22.7,99 22.7,101.6 22.7,105.6 C22.1,108.6 19.4,111.4 17,113.8 L13.8,116.9 C8,122.5 5.3,125.1 4.4,126.2 C3.3,127.5 1.8,129.6 1,132.1 C-0.5,136.6 1.1,140.4 5.8,143.2 C7.5,144.2 9.3,145.2 11.3,146.1 C12.9,146.8 14.5,147.5 16.2,148.3 C16.4,148.4 16.6,148.5 16.8,148.5 C18.8,161.6 23,189.2 23.1,190.2 C23.8,195.9 25.6,200 28.8,202.9 C34.3,208 41.7,207.8 47.7,207.6 C48.6,207.6 49.5,207.5 50.3,207.5 C53.4,207.5 56.5,207.5 59.5,207.5 C59.7,210.9 60.1,215.7 60.3,219.9 C60.6,225 61,230.3 61.3,234.4 C61.4,236.6 62.5,238.7 64.3,240 C65.7,241.1 67.4,241.7 69.1,241.7 C69.6,241.7 70.1,241.7 70.6,241.6 L166.3,222.6 C171.5,221.5 175.4,216.9 175.4,211.5 L175.4,194.1 C175.4,173.6 179.8,153 188.5,132.8 C193.4,121.4 195.8,109.3 195.6,96.9 C195.3,84.2 192.4,72 186.8,60.6 Z" id="Path"></path>
            <path d="M106.8,62.8 C104.5,62.8 102.6,64.7 102.6,67 C102.6,69.3 104.5,71.2 106.8,71.2 C108,71.2 109.1,70.7 109.9,69.9 C110.7,69.1 111.1,68 111.1,66.8 C111,64.6 109.1,62.8 106.8,62.8 Z" id="Path"></path>
            <path d="M95.3,33 C97.5,34 100.1,32.9 101.1,30.7 C102.4,27.7 104.9,26 108.1,26 C110.8,26 113.3,27.3 114.3,29.3 C115.2,31.1 114.9,33.1 113.4,35.2 C112.3,36.8 110.7,37.9 109.3,39 C107.4,40.4 105.3,42 104.1,44.6 C103.1,46.8 102.7,49.5 102.6,53.5 C102.6,55.9 104.5,57.9 107,57.9 C107,57.9 107,57.9 107,57.9 C109.4,57.9 111.4,55.9 111.4,53.5 C111.4,50.3 111.8,48.9 112.1,48.2 C112.3,47.7 113.7,46.7 114.5,46.1 C116.2,44.8 118.5,43.1 120.5,40.4 C124,35.6 124.6,30.1 122.1,25.3 C119.6,20.4 114,17.2 108,17.2 C101.3,17.2 95.6,21.1 92.9,27.3 C92,29.5 93.1,32.1 95.3,33 Z" id="Path"></path>
        </g>
    </g>
</svg>